<svg width="31" height="29" viewBox="0 0 31 29" fill="none" xmlns="http://www.w3.org/2000/svg">
<g clip-path="url(#clip0_248_339)">
<path fill-rule="evenodd" clip-rule="evenodd" d="M3 14.5C3 21.9588 8.96465 28 16.3288 28C22.2268 28 27.2085 24.1356 28.9745 18.7694C29.0912 18.0944 28.6913 17.8413 28.3414 17.8413C28.0249 17.8413 26.9752 17.8581 25.8589 17.8581C26.4754 21.25 25.0425 22.1275 24.2928 22.3975C23.9096 22.5494 22.7267 23.2075 22.4101 23.7812C22.1602 24.2537 21.5437 24.9287 21.5271 23.7981C21.5104 22.735 22.4934 21.9756 22.8933 21.7225C24.9092 20.5075 24.3428 18.5669 23.9929 17.7906C23.1265 17.6725 22.5434 17.3181 22.2102 16.93C21.8769 19.9338 20.7273 23.0725 15.6291 23.0725C14.1795 23.0725 12.98 22.5494 12.0469 21.6888C11.7137 21.8238 10.3475 22.2963 8.5148 21.5538C8.5148 21.5538 8.16492 20.4231 9.881 17.8413C9.5811 16.7613 9.43116 15.6138 9.43116 14.4663C9.43116 13.3188 9.5811 12.1713 9.881 11.0913C8.14826 8.50938 8.5148 7.37875 8.5148 7.37875C10.3475 6.63625 11.7137 7.10875 12.0469 7.24375C12.98 6.38313 14.1629 5.86 15.6291 5.86C20.744 5.86 21.8769 9.01563 22.2102 12.0194C22.6267 11.53 23.4264 11.1081 24.676 11.1081C26.4587 11.1081 27.8916 11.125 28.3414 11.125C28.6913 11.125 29.1078 10.8719 28.9745 10.1969C28.0812 7.51693 26.3806 5.18818 24.1121 3.53838C21.8437 1.88858 19.1215 1.00081 16.3288 1C8.96465 1 3 7.04125 3 14.5Z" fill="#5603AD"/>
</g>
<defs>
<clipPath id="clip0_248_339">
<rect width="29" height="31" fill="white" transform="translate(0 29) rotate(-90)"/>
</clipPath>
</defs>
</svg>
